<svg width="146" height="48" viewBox="0 0 146 48" fill="none" xmlns="http://www.w3.org/2000/svg">
<path d="M112 10L116 14L120 10" stroke="#151D48" stroke-width="2" stroke-linecap="round" stroke-linejoin="round"/>
<path d="M7.63 43H8.974L5.46 33.298H3.99L0.462 43H1.806L2.59 40.83H6.846L7.63 43ZM6.482 39.794H2.954L4.718 34.866L6.482 39.794ZM10.0356 39.136C10.0356 41.516 11.6176 43.126 13.6756 43.126C15.0756 43.126 16.0696 42.412 16.5316 41.558V43H17.8196V32.64H16.5316V36.7C15.9996 35.818 14.8936 35.202 13.6896 35.202C11.6176 35.202 10.0356 36.742 10.0356 39.136ZM16.5316 39.15C16.5316 40.956 15.3276 42.006 13.9276 42.006C12.5276 42.006 11.3376 40.942 11.3376 39.136C11.3376 37.33 12.5276 36.308 13.9276 36.308C15.3276 36.308 16.5316 37.372 16.5316 39.15ZM31.0465 43H32.3065V38.478C32.3065 36.28 30.9485 35.188 29.1985 35.188C28.0225 35.188 26.9305 35.79 26.4825 36.896C25.9785 35.748 24.9285 35.188 23.6685 35.188C22.6605 35.188 21.7505 35.622 21.2465 36.434V35.328H19.9725V43H21.2465V38.772C21.2465 37.12 22.1285 36.294 23.4165 36.294C24.6765 36.294 25.5165 37.092 25.5165 38.66V43H26.7765V38.772C26.7765 37.12 27.6585 36.294 28.9465 36.294C30.2065 36.294 31.0465 37.092 31.0465 38.66V43ZM34.3964 43H35.6704V35.328H34.3964V43ZM35.0544 34.082C35.5164 34.082 35.8944 33.704 35.8944 33.214C35.8944 32.724 35.5164 32.346 35.0544 32.346C34.5644 32.346 34.1864 32.724 34.1864 33.214C34.1864 33.704 34.5644 34.082 35.0544 34.082ZM43.4557 43H44.7157V38.478C44.7157 36.28 43.3577 35.188 41.5797 35.188C40.5437 35.188 39.6197 35.622 39.1157 36.42V35.328H37.8417V43H39.1157V38.758C39.1157 37.106 40.0117 36.294 41.3137 36.294C42.6017 36.294 43.4557 37.092 43.4557 38.66V43Z" fill="#737791"/>
<path d="M1.2 18H3.024V10.384L6.432 18H7.696L11.088 10.384V18H12.912V6.88H10.96L7.072 15.6L3.168 6.88H1.2V18ZM23.2934 9.184H21.4694V14.096C21.4694 15.712 20.5894 16.544 19.2454 16.544C17.9174 16.544 17.0374 15.712 17.0374 14.096V9.184H15.2294V14.368C15.2294 16.832 16.7974 18.128 18.8614 18.128C19.9014 18.128 20.8934 17.696 21.4694 16.944V18H23.2934V9.184ZM32.276 15.536C32.18 12.352 27.204 13.344 27.204 11.568C27.204 10.976 27.716 10.576 28.692 10.576C29.684 10.576 30.276 11.104 30.34 11.872H32.164C32.068 10.112 30.756 9.04 28.756 9.04C26.676 9.04 25.364 10.176 25.364 11.584C25.364 14.816 30.484 13.824 30.484 15.552C30.484 16.16 29.924 16.608 28.868 16.608C27.86 16.608 27.172 16.016 27.108 15.296H25.22C25.3 16.896 26.788 18.144 28.9 18.144C30.98 18.144 32.276 17.024 32.276 15.536ZM34.4709 18H36.3109V10.672H37.9429V9.184H36.3109V8.56C36.3109 7.552 36.6949 7.168 37.8149 7.168V5.648C35.5109 5.648 34.4709 6.528 34.4709 8.56V9.184H33.4309V10.672H34.4709V18ZM39.5594 18H41.3834V9.184H39.5594V18ZM40.4874 8.016C41.1274 8.016 41.6394 7.504 41.6394 6.848C41.6394 6.192 41.1274 5.68 40.4874 5.68C39.8314 5.68 39.3194 6.192 39.3194 6.848C39.3194 7.504 39.8314 8.016 40.4874 8.016ZM43.1701 13.552C43.1701 16.272 45.0101 18.144 47.2821 18.144C48.7701 18.144 49.8741 17.408 50.3861 16.72V22.192H52.2261V9.184H50.3861V10.464C49.8741 9.744 48.8021 9.04 47.3461 9.04C45.0101 9.04 43.1701 10.832 43.1701 13.552ZM50.3861 13.584C50.3861 15.488 49.0901 16.56 47.7141 16.56C46.3541 16.56 45.0421 15.456 45.0421 13.552C45.0421 11.648 46.3541 10.624 47.7141 10.624C49.0901 10.624 50.3861 11.696 50.3861 13.584Z" fill="#151D48"/>
</svg>
